<?xml version="1.0" encoding="UTF-8" standalone="no"?>
<!-- Created with Inkscape (http://www.inkscape.org/) -->

<svg
   xmlns:dc="http://purl.org/dc/elements/1.1/"
   xmlns:cc="http://creativecommons.org/ns#"
   xmlns:rdf="http://www.w3.org/1999/02/22-rdf-syntax-ns#"
   xmlns:svg="http://www.w3.org/2000/svg"
   xmlns="http://www.w3.org/2000/svg"
   xmlns:sodipodi="http://sodipodi.sourceforge.net/DTD/sodipodi-0.dtd"
   xmlns:inkscape="http://www.inkscape.org/namespaces/inkscape"
   version="1.0"
   width="970"
   height="770"
   id="svg1"
   sodipodi:docname="Hoehlengleichnis2.svg"
   inkscape:version="0.92.3 (2405546, 2018-03-11)">
  <metadata
     id="metadata52">
    <rdf:RDF>
      <cc:Work
         rdf:about="">
        <dc:format>image/svg+xml</dc:format>
        <dc:type
           rdf:resource="http://purl.org/dc/dcmitype/StillImage" />
        <dc:title></dc:title>
      </cc:Work>
    </rdf:RDF>
  </metadata>
  <sodipodi:namedview
     pagecolor="#ffffff"
     bordercolor="#666666"
     borderopacity="1"
     objecttolerance="10"
     gridtolerance="10"
     guidetolerance="10"
     inkscape:pageopacity="0"
     inkscape:pageshadow="2"
     inkscape:window-width="1920"
     inkscape:window-height="1057"
     id="namedview50"
     showgrid="false"
     inkscape:zoom="0.88293651"
     inkscape:cx="682.37745"
     inkscape:cy="348.01519"
     inkscape:window-x="1912"
     inkscape:window-y="-8"
     inkscape:window-maximized="1"
     inkscape:current-layer="svg1" />
  <defs
     id="defs3">
    <inkscape:perspective
       sodipodi:type="inkscape:persp3d"
       inkscape:vp_x="326.1443 : 499.01215 : 1"
       inkscape:vp_y="0 : 937.68683 : 0"
       inkscape:vp_z="1134.1123 : 499.01215 : 1"
       inkscape:persp3d-origin="730.12833 : 425.56001 : 1"
       id="perspective915" />
  </defs>
  <path
     style="opacity:1;fill:#4d4d4d;fill-opacity:1;fill-rule:nonzero;stroke:#333333;stroke-width:3;stroke-linecap:round;stroke-linejoin:bevel;stroke-miterlimit:4;stroke-dasharray:none;stroke-dashoffset:0;stroke-opacity:1;paint-order:stroke markers fill"
     id="path862-6"
     d="m 117.82714,122.07923 c 8.9525,11.84962 19.95281,21.95363 30.55773,32.27992 27.1386,25.77007 55.95388,49.78047 86.32758,71.65236 9.09688,6.55061 18.3963,12.81524 27.59446,19.22285 45.53662,30.54583 93.37586,57.36944 141.1132,84.25516 49.6175,27.94462 30.3984,17.04359 79.77911,45.41157 58.35761,34.17618 115.17144,71.15952 168.69652,112.55212 8.79424,6.80086 17.3713,13.87803 26.05695,20.81704 44.02967,35.56447 83.35106,76.33446 122.80812,116.76627 18.47069,19.26161 37.42279,38.0507 56.15772,57.05198 7.24745,7.35049 14.38126,14.81267 21.6481,22.14397 18.4606,18.6243 28.1506,27.94064 46.9223,46.27628 24.7246,24.22808 50.6908,47.54092 80.24827,65.77771 10.6658,6.58073 13.8516,7.82852 24.4151,12.92875 0,0 -10.1675,6.67526 -10.1675,6.67526 v 0 c -10.1562,-5.52164 -13.1236,-6.87165 -23.39817,-13.75989 -28.6752,-19.22414 -53.8774,-43.00548 -78.461,-67.09744 C 875.84933,713.78008 833.40212,672.68582 792.42722,630.12812 753.15651,589.70914 714.18515,548.79263 670.66701,512.84177 647.51121,493.92771 641.17309,488.33363 616.79314,470.17533 572.23272,436.98652 525.65319,406.5678 477.74581,378.44422 464.4819,370.82273 451.26503,363.1188 437.95409,355.57975 376.69691,320.8849 314.19684,288.24083 255.1251,249.82016 c -9.37005,-6.30905 -18.82744,-12.49029 -28.11015,-18.92715 -31.04615,-21.52817 -60.76243,-44.95822 -88.8383,-70.23982 -11.04898,-10.17361 -22.26057,-20.21425 -32.33987,-31.37497 0,0 11.99036,-7.19899 11.99036,-7.19899 z"
     inkscape:connector-curvature="0" />
  <path
     style="opacity:1;fill:#999999;fill-opacity:0.97196224;fill-rule:nonzero;stroke:#4d4d4d;stroke-width:2;stroke-linecap:round;stroke-linejoin:bevel;stroke-miterlimit:4;stroke-dasharray:none;stroke-dashoffset:0;stroke-opacity:1;paint-order:stroke markers fill"
     id="path1055"
     d="m 754.82576,595.72459 c -1.26872,-0.72507 -2.45082,-1.61145 -3.60288,-2.50931 -2.00619,-1.51711 -3.82706,-3.24874 -5.66672,-4.95803 -3.02243,-2.90807 -6.33142,-5.48328 -9.67007,-8.01216 -2.29863,-1.7754 -4.77463,-3.31624 -6.99732,-5.18896 -1.38253,-1.17503 -2.46116,-2.64132 -3.52927,-4.09439 -0.90931,-1.30168 -1.865,-2.56886 -2.82095,-3.83615 -0.89279,-1.16122 -1.69637,-2.38314 -2.50128,-3.60562 -1.00445,-1.46073 -1.93248,-2.97069 -2.87121,-4.47381 -0.51941,-0.86638 -1.18435,-1.64589 -1.62106,-2.55976 -0.40217,-0.79771 -0.90418,-1.5368 -1.3511,-2.30857 -0.7156,-1.21637 -1.4519,-2.42105 -2.23317,-3.59632 -1.04241,-1.50419 -1.99169,-3.06444 -2.91869,-4.64091 -0.63627,-1.06166 -1.20685,-2.15974 -1.74416,-3.27412 -0.46772,-1.01869 -0.96004,-2.02463 -1.46834,-3.02342 -0.32725,-0.69311 -0.60498,-1.40384 -0.83125,-2.13597 -0.24518,-0.73518 -0.40652,-1.49352 -0.60153,-2.2425 -0.19887,-0.73682 -0.43011,-1.4628 -0.57512,-2.2129 -0.0152,-0.10053 -0.0303,-0.20107 -0.0455,-0.3016 0,0 3.27397,-1.72437 3.27397,-1.72437 v 0 c 0.0117,0.0965 0.0234,0.19307 0.035,0.2896 0.12273,0.74656 0.34399,1.46565 0.54571,2.19353 0.2033,0.7413 0.35834,1.49633 0.60686,2.22477 0.21585,0.71506 0.47444,1.4132 0.78001,2.09509 0.49007,1.00943 0.98949,2.01425 1.45655,3.03484 0.53567,1.10578 1.09485,2.19977 1.70624,3.266 0.89051,1.58786 1.82344,3.14841 2.88338,4.63108 0.80291,1.17035 1.57874,2.36051 2.29644,3.58537 0.4646,0.77514 0.98668,1.51567 1.39533,2.32385 0.41216,0.90812 1.05064,1.69193 1.5423,2.55648 0.91566,1.51212 1.82383,3.02863 2.84907,4.47061 0.82017,1.20512 1.64213,2.40735 2.51902,3.57239 0.95011,1.27098 1.87136,2.56298 2.78786,3.85836 1.06377,1.42281 2.12027,2.86911 3.4808,4.02905 2.1711,1.88452 4.54509,3.51578 6.80969,5.28331 3.34326,2.55649 6.68003,5.1268 9.78016,7.9795 1.86895,1.676 3.71166,3.38441 5.73185,4.88096 1.15181,0.8636 2.32784,1.76092 3.64496,2.35389 0,0 -3.07562,2.07019 -3.07562,2.07019 z"
     inkscape:connector-curvature="0" />
  <path
     d="m 309.76439,296.50272 c -10.86055,-36.96626 -8.1454,-48.31235 0.45253,-69.9065 -0.90506,31.47622 -0.90506,26.35218 8.1454,48.67834 2.26262,-15.73811 4.52523,-19.76414 6.78785,-40.26028 5.43027,23.42417 4.97774,33.30624 9.95549,39.52827 8.59793,-20.86214 10.40801,-28.18219 15.38578,-47.94633 4.52521,24.52217 0,42.45629 -3.16768,52.33836 9.95553,-19.03212 14.93327,-39.16227 14.48074,-44.65231 -0.45251,-5.49004 4.97774,18.30014 -0.45251,48.31235 -13.12317,28.5482 -51.5876,13.9081 -51.5876,13.9081 z"
     style="fill:#ffff00;fill-opacity:1;fill-rule:evenodd;stroke:none;stroke-width:0.11285331pt;stroke-linecap:butt;stroke-linejoin:miter;stroke-opacity:1"
     id="path2385-6"
     inkscape:connector-curvature="0" />
  <path
     d="m 315.05319,298.1962 c -8.64672,-31.89489 -13.90053,-40.11045 -7.0552,-58.74213 -0.72058,27.15804 6.69491,21.163 13.90053,40.42626 1.80139,-13.57902 2.21241,-13.51131 4.0138,-31.1956 4.32336,20.21062 5.3535,25.19556 9.31657,30.56401 6.84533,-18.00009 11.06726,-21.95497 15.03035,-39.00768 3.60281,21.15799 -2.7808,34.27081 -5.30276,42.79717 7.92617,-16.42114 17.91435,-27.49379 17.55406,-32.23066 -0.36028,-4.73686 -4.84281,27.59427 -6.38537,35.38857 -10.44814,24.6317 -41.07198,12.00006 -41.07198,12.00006 z"
     style="fill:#ff0000;fill-opacity:1;fill-rule:evenodd;stroke:none;stroke-width:0.11332121pt;stroke-linecap:butt;stroke-linejoin:miter;stroke-opacity:1"
     id="path2384-3"
     inkscape:connector-curvature="0"
     sodipodi:nodetypes="cccccccscc" />
  <path
     d="m 320.25315,300.90903 c -5.86163,-24.47761 -13.3577,-29.45683 -8.71725,-43.75561 -0.48847,20.8423 8.473,14.91567 13.35769,29.69917 1.22117,-10.42117 1.4998,-10.36919 2.72094,-23.94092 2.93082,15.51055 3.62913,19.33622 6.31571,23.45621 4.64046,-13.81408 8.81399,-13.53482 11.50059,-26.62186 2.44233,16.23762 -0.47435,23.29221 -4.90626,29.53009 5.37315,-12.60233 15.57569,-11.32324 15.33145,-14.95854 -0.24422,-3.63528 -6.71449,11.40036 -7.76019,17.38206 -7.0828,18.90349 -27.84268,9.2094 -27.84268,9.2094 z"
     style="fill:#ff9955;fill-opacity:1;fill-rule:evenodd;stroke:none;stroke-width:0.0817368pt;stroke-linecap:butt;stroke-linejoin:miter;stroke-opacity:1"
     id="path2384-8-6"
     inkscape:connector-curvature="0"
     sodipodi:nodetypes="cccccccscc" />
  <path
     d="m 295.81609,325.16032 c -17.79171,-36.96626 -13.34377,-48.31236 0.74133,-69.90649 -1.48264,31.47621 -1.48264,26.35217 13.34377,48.67834 3.70662,-15.73812 7.41322,-19.76415 11.11984,-40.2603 8.89586,23.42418 8.15453,33.30625 16.30906,39.5283 14.0851,-20.86217 17.05039,-28.18221 25.20494,-47.94634 7.41322,24.52216 0,42.45628 -5.18926,52.33835 16.30908,-19.03212 24.46361,-39.16227 23.7223,-44.6523 -0.74133,-5.49006 8.15451,18.30014 -0.74133,48.31234 -21.49833,28.5482 -84.51065,13.9081 -84.51065,13.9081 z"
     style="fill:#ffff00;fill-opacity:1;fill-rule:evenodd;stroke:none;stroke-width:0.14444329pt;stroke-linecap:butt;stroke-linejoin:miter;stroke-opacity:1"
     id="path2385"
     inkscape:connector-curvature="0" />
  <path
     d="m 304.48019,326.8538 c -14.16505,-31.89489 -22.77182,-40.11045 -11.55782,-58.74213 -1.18042,27.15804 10.96761,21.163 22.77182,40.42626 2.95106,-13.57902 3.62434,-13.51132 6.57539,-31.19561 7.08253,20.21063 8.77009,25.19557 15.2624,30.56403 11.214,-18.0001 18.13036,-21.95497 24.62267,-39.0077 5.90211,21.158 -4.55551,34.27083 -8.68698,42.79718 12.98463,-16.42114 29.34723,-27.4938 28.75702,-32.23066 -0.59023,-4.73687 -7.93349,27.59427 -10.4605,35.38858 -17.1161,24.63169 -67.284,12.00005 -67.284,12.00005 z"
     style="fill:#ff0000;fill-opacity:1;fill-rule:evenodd;stroke:none;stroke-width:0.14504218pt;stroke-linecap:butt;stroke-linejoin:miter;stroke-opacity:1"
     id="path2384"
     inkscape:connector-curvature="0"
     sodipodi:nodetypes="cccccccscc" />
  <path
     d="m 589.53249,472.56028 c 24.3732,-35.06009 40.71758,29.88543 33.16157,-9.61402 -7.556,-39.49945 -19.04363,-79.57272 -11.44233,-96.5583 1.47526,-10.4872 -6.02133,86.61704 -41.97735,8.76872 -7.93824,-12.96445 18.73411,25.02194 19.96762,57.41985 1.23351,32.39792 0.29049,39.98375 0.29049,39.98375 z m 9.35407,-82.11215 c 2.34657,6.40678 1.21598,12.56308 -2.52527,13.75047 -3.74125,1.1874 -8.67641,-3.04374 -11.02298,-9.45052 -2.34658,-6.40678 -1.21598,-12.56308 2.52526,-13.75048 3.74125,-1.1874 8.67641,3.04375 11.02299,9.45053 z"
     style="fill:#ffccaa;fill-opacity:1;fill-rule:evenodd;stroke:#ff6600;stroke-width:1.32093596;stroke-linecap:butt;stroke-linejoin:miter;stroke-miterlimit:4;stroke-dasharray:none;stroke-opacity:1"
     id="path2354"
     inkscape:connector-curvature="0" />
  <g
     id="g1087"
     transform="matrix(1,0.02822227,0,1,77.790459,79.611872)">
    <g
       id="g1117"
       transform="matrix(0.96850608,-0.81461345,0.2489899,0.82309186,-290.88288,702.28218)">
      <path
         d="m 874.77867,612.71144 c 30.39465,-18.48739 24.31572,28.96356 29.96044,0.61624 5.64473,-28.34732 8.24998,-57.92713 19.53942,-67.78707 4.34209,-6.7787 -30.82886,57.31088 -36.90779,-3.08122 -2.60525,-10.47619 7.81577,20.95236 -0.86842,43.13722 -8.68418,22.18486 -11.72365,27.11483 -11.72365,27.11483 z m 32.20322,-53.54731 c 0,4.83863 -2.76503,8.76112 -6.17587,8.76112 -3.41084,0 -6.17586,-3.92249 -6.17586,-8.76112 0,-4.83863 2.76502,-8.76112 6.17586,-8.76112 3.41084,0 6.17587,3.92249 6.17587,8.76112 z"
         style="opacity:0.1;fill:#000000;fill-opacity:1;fill-rule:evenodd;stroke:#000000;stroke-width:0.12704271pt;stroke-linecap:butt;stroke-linejoin:miter;stroke-opacity:1"
         id="path2515"
         inkscape:connector-curvature="0" />
      <path
         d="m 874.77867,613.244 c 30.39465,-18.80287 24.31572,29.45783 29.96044,0.62677 5.64473,-28.83107 8.24998,-58.91567 19.53942,-68.94387 4.34209,-6.89438 -30.82886,58.2889 -36.90779,-3.1338 -2.60525,-10.65496 7.81577,21.30992 -0.86842,43.87336 -8.68418,22.56344 -11.72365,27.57754 -11.72365,27.57754 z m 32.20322,-54.46109 c 0,4.9212 -2.76503,8.91062 -6.17587,8.91062 -3.41084,0 -6.17586,-3.98942 -6.17586,-8.91062 0,-4.9212 2.76502,-8.91063 6.17586,-8.91063 3.41084,0 6.17587,3.98943 6.17587,8.91063 z"
         style="opacity:0.1;fill:#000000;fill-opacity:1;fill-rule:evenodd;stroke:#000000;stroke-width:0.12812214pt;stroke-linecap:butt;stroke-linejoin:miter;stroke-opacity:1"
         id="path2518"
         inkscape:connector-curvature="0" />
      <path
         d="m 881.00192,614.37854 c 22.80882,-19.47463 18.24705,30.51026 22.48298,0.64916 4.23592,-29.86111 6.19096,-61.02053 14.66281,-71.407 3.2584,-7.1407 -23.13466,60.37137 -27.69642,-3.24577 -1.95504,-11.03563 5.86512,22.07126 -0.65168,45.44082 -6.51681,23.36956 -8.79769,28.56279 -8.79769,28.56279 z m 24.16601,-56.40678 c 0,5.09702 -2.07494,9.22897 -4.6345,9.22897 -2.55957,0 -4.63451,-4.13195 -4.63451,-9.22897 0,-5.09703 2.07494,-9.22898 4.63451,-9.22898 2.55956,0 4.6345,4.13195 4.6345,9.22898 z"
         style="opacity:0.1;fill:#000000;fill-opacity:1;fill-rule:evenodd;stroke:#000000;stroke-width:0.11295344pt;stroke-linecap:butt;stroke-linejoin:miter;stroke-opacity:1"
         id="path2521"
         inkscape:connector-curvature="0" />
      <path
         d="m 879.42264,614.37854 c 24.73384,-19.47463 19.78707,30.51026 24.3805,0.64916 4.59343,-29.86111 6.71348,-61.02053 15.90033,-71.407 3.53341,-7.1407 -25.08719,60.37137 -30.03396,-3.24577 -2.12004,-11.03563 6.36014,22.07126 -0.70668,45.44082 -7.06681,23.36956 -9.54019,28.56279 -9.54019,28.56279 z m 26.20557,-56.40678 c 0,5.09702 -2.25006,9.22897 -5.02565,9.22897 -2.77559,0 -5.02565,-4.13195 -5.02565,-9.22897 0,-5.09703 2.25006,-9.22898 5.02565,-9.22898 2.77559,0 5.02565,4.13195 5.02565,9.22898 z"
         style="opacity:0.1;fill:#000000;fill-opacity:1;fill-rule:evenodd;stroke:#000000;stroke-width:0.11762346pt;stroke-linecap:butt;stroke-linejoin:miter;stroke-opacity:1"
         id="path2524"
         inkscape:connector-curvature="0" />
      <path
         d="m 879.41874,625.11281 c 24.73866,-25.83092 19.79093,40.46842 24.38525,0.86103 4.59432,-39.6074 6.71478,-80.93687 15.90342,-94.71335 3.53409,-9.47133 -25.09206,80.07584 -30.03979,-4.30515 -2.12046,-14.63752 6.36137,29.27504 -0.70682,60.27213 -7.06819,30.9971 -9.54206,37.88534 -9.54206,37.88534 z m 26.21069,-74.81727 c 0,6.76063 -2.25051,12.2412 -5.02664,12.2412 -2.77613,0 -5.02663,-5.48057 -5.02663,-12.2412 0,-6.76062 2.2505,-12.24119 5.02663,-12.24119 2.77613,0 5.02664,5.48057 5.02664,12.24119 z"
         style="opacity:0.1;fill:#000000;fill-opacity:1;fill-rule:evenodd;stroke:#000000;stroke-width:0.13547882pt;stroke-linecap:butt;stroke-linejoin:miter;stroke-opacity:1"
         id="path2527"
         inkscape:connector-curvature="0" />
      <path
         d="m 874.77867,614.37854 c 30.39465,-19.47463 24.31572,30.51026 29.96044,0.64916 5.64473,-29.86111 8.24998,-61.02053 19.53942,-71.407 4.34209,-7.1407 -30.82886,60.37137 -36.90779,-3.24577 -2.60525,-11.03563 7.81577,22.07126 -0.86842,45.44082 -8.68418,23.36956 -11.72365,28.56279 -11.72365,28.56279 z m 32.20322,-56.40678 c 0,5.09702 -2.76503,9.22897 -6.17587,9.22897 -3.41084,0 -6.17586,-4.13195 -6.17586,-9.22897 0,-5.09703 2.76502,-9.22898 6.17586,-9.22898 3.41084,0 6.17587,4.13195 6.17587,9.22898 z"
         style="opacity:0.1;fill:#000000;fill-opacity:1;fill-rule:evenodd;stroke:#000000;stroke-width:0.13039073pt;stroke-linecap:butt;stroke-linejoin:miter;stroke-opacity:1"
         id="path2530"
         inkscape:connector-curvature="0" />
      <path
         d="m 874.77867,617.75726 c 30.39465,-21.47527 24.31572,33.64456 29.96044,0.71584 5.64473,-32.92873 8.24998,-67.28915 19.53942,-78.74262 4.34209,-7.87426 -30.82886,66.5733 -36.90779,-3.5792 -2.60525,-12.16932 7.81577,24.33862 -0.86842,50.10893 -8.68418,25.77031 -11.72365,31.49705 -11.72365,31.49705 z m 32.20322,-62.20146 c 0,5.62064 -2.76503,10.17707 -6.17587,10.17707 -3.41084,0 -6.17586,-4.55643 -6.17586,-10.17707 0,-5.62063 2.76502,-10.17706 6.17586,-10.17706 3.41084,0 6.17587,4.55643 6.17587,10.17706 z"
         style="opacity:0.1;fill:#000000;fill-opacity:1;fill-rule:evenodd;stroke:#000000;stroke-width:0.1369245pt;stroke-linecap:butt;stroke-linejoin:miter;stroke-opacity:1"
         id="path2533"
         inkscape:connector-curvature="0" />
      <path
         d="m 867.99493,612.67369 c 38.66376,-18.46501 30.93101,28.9285 38.11142,0.6155 7.18042,-28.31301 10.49445,-57.85702 24.85528,-67.70502 5.52338,-6.77051 -39.2161,57.24152 -46.94885,-3.0775 -3.31404,-10.46351 9.9421,20.927 -1.10468,43.08502 -11.04679,22.158 -14.91317,27.082 -14.91317,27.082 z m 40.96437,-53.4825 c 0,4.83277 -3.51729,8.75051 -7.85607,8.75051 -4.33878,0 -7.85605,-3.91774 -7.85605,-8.75051 0,-4.83277 3.51727,-8.75051 7.85605,-8.75051 4.33878,0 7.85607,3.91774 7.85607,8.75051 z"
         style="opacity:0.1;fill:#000000;fill-opacity:1;fill-rule:evenodd;stroke:#000000;stroke-width:0.14319908pt;stroke-linecap:butt;stroke-linejoin:miter;stroke-opacity:1"
         id="path2536"
         inkscape:connector-curvature="0" />
      <path
         d="m 845.44097,614.37854 c 52.32098,-19.47463 41.85678,30.51026 51.57353,0.64916 9.71676,-29.86111 14.20141,-61.02053 33.63492,-71.407 7.47443,-7.1407 -53.06842,60.37137 -63.53262,-3.24577 -4.48465,-11.03563 13.45396,22.07126 -1.49489,45.44082 -14.94885,23.36956 -20.18094,28.56279 -20.18094,28.56279 z m 55.43424,-56.40678 c 0,5.09702 -4.75969,9.22897 -10.63107,9.22897 -5.87137,0 -10.63106,-4.13195 -10.63106,-9.22897 0,-5.09703 4.75969,-9.22898 10.63106,-9.22898 5.87138,0 10.63107,4.13195 10.63107,9.22898 z"
         style="opacity:0.1;fill:#000000;fill-opacity:1;fill-rule:evenodd;stroke:#000000;stroke-width:0.17107481pt;stroke-linecap:butt;stroke-linejoin:miter;stroke-opacity:1"
         id="path2539"
         inkscape:connector-curvature="0" />
      <path
         d="m 943.61493,603.57298 c 3.48413,-22.25801 8.30839,-13.91126 12.86454,-13.44755 4.55615,0.46371 5.6282,-5.56451 11.5245,12.98384 -1.07204,-10.20159 -1.87611,-25.50397 4.55615,-21.7943 6.43227,3.70967 11.79248,0 9.11237,-3.70967 -2.6801,-3.70967 -2.6801,-8.81047 -6.96828,-8.34676 -4.28817,0.46371 -6.16422,6.02821 -10.72043,5.10079 -4.55622,-0.92741 -16.08066,3.70967 -19.29679,-2.31853 -3.21615,-6.02822 4.02013,-19.93948 0.53602,-13.91126 -3.48416,6.02821 -5.62825,16.69351 -3.75217,25.04026 -0.26801,7.88304 2.14409,20.40318 2.14409,20.40318 z"
         style="opacity:0.1;fill:#000000;fill-opacity:1;fill-rule:evenodd;stroke:#000000;stroke-width:0.08658092pt;stroke-linecap:butt;stroke-linejoin:miter;stroke-opacity:1"
         id="path2543"
         inkscape:connector-curvature="0" />
      <path
         d="m 936.06415,604.17222 c 4.75921,-22.25801 11.34889,-13.91126 17.57249,-13.44755 6.22354,0.46371 7.68791,-5.56451 15.74195,12.98384 -1.46437,-10.20159 -2.56262,-25.50397 6.2236,-21.7943 8.78622,3.70967 16.10808,0 12.44715,-3.70967 -3.66093,-3.70968 -3.66093,-8.81047 -9.51841,-8.34676 -5.85748,0.46371 -8.42016,6.02821 -14.64376,5.10079 -6.22354,-0.92741 -21.96553,3.70967 -26.35864,-2.31853 -4.39312,-6.02822 5.4914,-19.93948 0.73218,-13.91127 -4.7592,6.02822 -7.68795,16.69352 -5.1253,25.04027 -0.36609,7.88304 2.92874,20.40318 2.92874,20.40318 z"
         style="opacity:0.1;fill:#000000;fill-opacity:1;fill-rule:evenodd;stroke:#000000;stroke-width:0.10119086pt;stroke-linecap:butt;stroke-linejoin:miter;stroke-opacity:1"
         id="path2544"
         inkscape:connector-curvature="0" />
      <path
         d="m 942.63764,604.17221 c 3.48413,-22.258 8.30839,-13.91125 12.86454,-13.44754 4.55615,0.46371 5.6282,-5.56451 11.5245,12.98383 -1.07205,-10.20158 -1.87611,-25.50396 4.55615,-21.79429 6.43226,3.70967 11.79248,0 9.11237,-3.70967 -2.68011,-3.70968 -2.68011,-8.81047 -6.96828,-8.34676 -4.28818,0.46371 -6.16422,6.02821 -10.72044,5.10079 -4.55621,-0.92741 -16.08065,3.70967 -19.29679,-2.31853 -3.21613,-6.02822 4.02021,-19.93948 0.53602,-13.91127 -3.48414,6.02822 -5.62824,16.69352 -3.75215,25.04026 -0.26801,7.88305 2.14408,20.40318 2.14408,20.40318 z"
         style="opacity:0.1;fill:#000000;fill-opacity:1;fill-rule:evenodd;stroke:#000000;stroke-width:0.0865809pt;stroke-linecap:butt;stroke-linejoin:miter;stroke-opacity:1"
         id="path2545"
         inkscape:connector-curvature="0" />
      <path
         d="m 942.63763,599.00348 c 3.48414,-17.35471 8.30833,-10.84669 12.86455,-10.48514 4.55615,0.36156 5.6282,-4.33868 11.5245,10.12358 -1.07211,-7.95424 -1.87611,-19.8856 4.55615,-16.99315 6.43226,2.89245 11.79248,0 9.11237,-2.89245 -2.68011,-2.89246 -2.68011,-6.86959 -6.96828,-6.50803 -4.28818,0.36156 -6.16428,4.70024 -10.72044,3.97712 -4.55621,-0.72311 -16.08065,2.89245 -19.2968,-1.80778 -3.21614,-4.70024 4.02015,-15.54694 0.53602,-10.8467 -3.48415,4.70023 -5.62824,13.01604 -3.75216,19.52406 -0.26801,6.14646 2.14409,15.90849 2.14409,15.90849 z"
         style="opacity:0.1;fill:#000000;fill-opacity:1;fill-rule:evenodd;stroke:#000000;stroke-width:0.07645182pt;stroke-linecap:butt;stroke-linejoin:miter;stroke-opacity:1"
         id="path2546"
         inkscape:connector-curvature="0" />
      <path
         d="m 939.46642,605.88183 c 4.09927,-23.87982 9.77519,-14.92489 15.13579,-14.42739 5.36054,0.4975 6.62183,-5.96997 13.5591,13.9299 -1.26135,-10.94493 -2.20732,-27.36231 5.36054,-23.38233 7.56786,3.97997 13.87442,0 10.7212,-3.97998 -3.15334,-3.97998 -3.15334,-9.45244 -8.19856,-8.95494 -5.04528,0.4975 -7.25253,6.46746 -12.61314,5.47246 -5.3606,-0.99499 -18.9197,3.97998 -22.70361,-2.48747 -3.78394,-6.46746 4.72994,-21.39236 0.63065,-14.92491 -4.09926,6.46746 -6.62189,17.90988 -4.41459,26.86482 -0.31533,8.45744 2.52262,21.88984 2.52262,21.88984 z"
         style="opacity:0.1;fill:#000000;fill-opacity:1;fill-rule:evenodd;stroke:#000000;stroke-width:0.09727463pt;stroke-linecap:butt;stroke-linejoin:miter;stroke-opacity:1"
         id="path2547"
         inkscape:connector-curvature="0" />
      <path
         d="m 939.47639,604.17222 c 4.09733,-22.25801 9.7706,-13.91126 15.12864,-13.44755 5.35797,0.46371 6.61875,-5.56451 13.55269,12.98384 -1.26071,-10.20159 -2.20629,-25.50397 5.35804,-21.7943 7.56434,3.70967 13.86789,0 10.71615,-3.70967 -3.15181,-3.70968 -3.15181,-8.81047 -8.19472,-8.34676 -5.04285,0.46371 -7.24914,6.02821 -12.60718,5.10079 -5.35804,-0.92741 -18.91074,3.70967 -22.6929,-2.31853 -3.78216,-6.02822 4.72768,-19.93948 0.63035,-13.91127 -4.09733,6.02822 -6.61877,16.69352 -4.41251,25.04027 -0.31518,7.88304 2.52144,20.40318 2.52144,20.40318 z"
         style="opacity:0.1;fill:#000000;fill-opacity:1;fill-rule:evenodd;stroke:#000000;stroke-width:0.09389116pt;stroke-linecap:butt;stroke-linejoin:miter;stroke-opacity:1"
         id="path2548"
         inkscape:connector-curvature="0" />
      <path
         d="m 936.06415,605.79695 c 4.75921,-23.7993 11.34889,-14.87456 17.57249,-14.37874 6.22354,0.49582 7.68791,-5.94984 15.74195,13.88293 -1.46437,-10.90802 -2.56262,-27.27005 6.2236,-23.30349 8.78622,3.96655 16.10808,0 12.44715,-3.96656 -3.66093,-3.96655 -3.66093,-9.42056 -9.51841,-8.92474 -5.85748,0.49583 -8.42016,6.44565 -14.64376,5.45401 -6.22354,-0.99164 -21.96553,3.96655 -26.35864,-2.47909 -4.39312,-6.44565 5.4914,-21.32023 0.73218,-14.87457 -4.7592,6.44564 -7.68795,17.84948 -5.1253,26.77422 -0.36609,8.42892 2.92874,21.81603 2.92874,21.81603 z"
         style="opacity:0.1;fill:#000000;fill-opacity:1;fill-rule:evenodd;stroke:#000000;stroke-width:0.1046358pt;stroke-linecap:butt;stroke-linejoin:miter;stroke-opacity:1"
         id="path2549"
         inkscape:connector-curvature="0" />
      <path
         d="m 940.87253,602.82393 c 4.09737,-22.258 9.7706,-13.91126 15.12864,-13.44755 5.35798,0.46371 6.61875,-5.56451 13.5527,12.98384 -1.26071,-10.20159 -2.2063,-25.50397 5.35804,-21.79429 7.56433,3.70966 13.86789,0 10.71614,-3.70968 -3.15181,-3.70967 -3.15181,-8.81047 -8.19472,-8.34676 -5.04285,0.46372 -7.24914,6.02822 -12.60718,5.10079 -5.35804,-0.92741 -18.91073,3.70967 -22.6929,-2.31853 -3.78215,-6.02821 4.72768,-19.93948 0.63036,-13.91126 -4.09734,6.02821 -6.61877,16.69351 -4.41251,25.04026 -0.31518,7.88305 2.52143,20.40318 2.52143,20.40318 z"
         style="opacity:0.1;fill:#000000;fill-opacity:1;fill-rule:evenodd;stroke:#000000;stroke-width:0.09389116pt;stroke-linecap:butt;stroke-linejoin:miter;stroke-opacity:1"
         id="path2550"
         inkscape:connector-curvature="0" />
      <path
         d="m 884.66877,606.17488 c 20.29136,-14.7051 16.23309,23.03796 20.00149,0.49016 3.76839,-22.5478 5.50765,-46.07594 13.04444,-53.91866 2.89877,-5.39186 -20.58124,45.58578 -24.6395,-2.45085 -1.73927,-8.33288 5.21777,16.66577 -0.57976,34.31188 -5.79753,17.6461 -7.82667,21.56747 -7.82667,21.56747 z m 21.49877,-42.59217 c 0,3.84871 -1.84593,6.96871 -4.123,6.96871 -2.27705,0 -4.12298,-3.12 -4.12298,-6.96871 0,-3.8487 1.84593,-6.96869 4.12298,-6.96869 2.27707,0 4.123,3.11999 4.123,6.96869 z"
         style="opacity:0.1;fill:#000000;fill-opacity:1;fill-rule:evenodd;stroke:#000000;stroke-width:0.09257696pt;stroke-linecap:butt;stroke-linejoin:miter;stroke-opacity:1"
         id="path2479"
         inkscape:connector-curvature="0" />
      <path
         d="m 957.4674,596.58127 c 2.80913,-15.05689 6.69877,-9.41056 10.37225,-9.09687 3.67348,0.31368 4.53783,-3.76423 9.29181,8.78319 -0.86435,-6.90108 -1.51261,-17.2527 3.67348,-14.74321 5.18616,2.50948 9.5079,0 7.34703,-2.50949 -2.16087,-2.50949 -2.16087,-5.96003 -5.61827,-5.64634 -3.45745,0.31369 -4.97007,4.07791 -8.64355,3.45054 -3.67354,-0.62737 -12.96536,2.50948 -15.5584,-1.56843 -2.59305,-4.07791 3.24131,-13.48848 0.43217,-9.41056 -2.80913,4.0779 -4.53783,11.29268 -3.02522,16.93901 -0.21608,5.33266 1.7287,13.80216 1.7287,13.80216 z"
         style="opacity:0.1;fill:#000000;fill-opacity:1;fill-rule:evenodd;stroke:#000000;stroke-width:0.06394203pt;stroke-linecap:butt;stroke-linejoin:miter;stroke-opacity:1"
         id="path2483"
         inkscape:connector-curvature="0" />
      <path
         d="m 885.63507,603.50817 c 16.62046,-15.74622 13.29636,24.66907 16.38302,0.52487 3.08666,-24.1442 4.51127,-49.33815 10.68458,-57.73613 2.37435,-5.77362 -16.85789,48.81328 -20.18198,-2.62437 -1.42462,-8.92285 4.27383,17.84572 -0.47487,36.74118 -4.7487,18.89546 -6.41075,23.09445 -6.41075,23.09445 z m 17.60944,-45.60771 c 0,4.12119 -1.51198,7.46208 -3.3771,7.46208 -1.86512,0 -3.3771,-3.34089 -3.3771,-7.46208 0,-4.1212 1.51198,-7.46209 3.3771,-7.46209 1.86512,0 3.3771,3.34089 3.3771,7.46209 z"
         style="opacity:0.1;fill:#000000;fill-opacity:1;fill-rule:evenodd;stroke:#000000;stroke-width:0.08670081pt;stroke-linecap:butt;stroke-linejoin:miter;stroke-opacity:1"
         id="path2494"
         inkscape:connector-curvature="0" />
      <path
         d="m 885.10136,607.33308 c 16.62046,-15.74622 13.29637,24.66908 16.38302,0.52488 3.08666,-24.1442 4.51127,-49.33815 10.68458,-57.73614 2.37435,-5.77361 -16.85789,48.81328 -20.18198,-2.62436 -1.42462,-8.92286 4.27383,17.84571 -0.47487,36.74117 -4.7487,18.89546 -6.41075,23.09445 -6.41075,23.09445 z m 17.60944,-45.6077 c 0,4.12119 -1.51198,7.46208 -3.3771,7.46208 -1.86512,0 -3.3771,-3.34089 -3.3771,-7.46208 0,-4.1212 1.51198,-7.46209 3.3771,-7.46209 1.86512,0 3.3771,3.34089 3.3771,7.46209 z"
         style="opacity:0.1;fill:#000000;fill-opacity:1;fill-rule:evenodd;stroke:#000000;stroke-width:0.08670081pt;stroke-linecap:butt;stroke-linejoin:miter;stroke-opacity:1"
         id="path2497"
         inkscape:connector-curvature="0" />
      <path
         d="m 886.63712,609.75658 c 16.62045,-15.74622 13.29636,24.66907 16.38302,0.52487 3.08666,-24.1442 4.51126,-49.33815 10.68458,-57.73614 2.37435,-5.77361 -16.8579,48.81328 -20.18199,-2.62436 -1.42461,-8.92285 4.27383,17.84571 -0.47486,36.74117 -4.74871,18.89546 -6.41075,23.09446 -6.41075,23.09446 z m 17.60944,-45.60771 c 0,4.12119 -1.51198,7.46208 -3.37711,7.46208 -1.86512,0 -3.37709,-3.34089 -3.37709,-7.46208 0,-4.1212 1.51197,-7.46209 3.37709,-7.46209 1.86513,0 3.37711,3.34089 3.37711,7.46209 z"
         style="opacity:0.1;fill:#000000;fill-opacity:1;fill-rule:evenodd;stroke:#000000;stroke-width:0.08670081pt;stroke-linecap:butt;stroke-linejoin:miter;stroke-opacity:1"
         id="path2500"
         inkscape:connector-curvature="0" />
      <path
         d="m 885.10136,603.95759 c 16.62046,-15.74622 13.29637,24.66907 16.38302,0.52487 3.08666,-24.1442 4.51127,-49.33815 10.68458,-57.73613 2.37435,-5.77361 -16.85789,48.81328 -20.18198,-2.62436 -1.42462,-8.92287 4.27383,17.84571 -0.47487,36.74117 -4.7487,18.89546 -6.41075,23.09445 -6.41075,23.09445 z m 17.60944,-45.60771 c 0,4.1212 -1.51198,7.46209 -3.3771,7.46209 -1.86512,0 -3.3771,-3.34089 -3.3771,-7.46209 0,-4.12119 1.51198,-7.46208 3.3771,-7.46208 1.86512,0 3.3771,3.34089 3.3771,7.46208 z"
         style="opacity:0.1;fill:#000000;fill-opacity:1;fill-rule:evenodd;stroke:#000000;stroke-width:0.08670081pt;stroke-linecap:butt;stroke-linejoin:miter;stroke-opacity:1"
         id="path2503"
         inkscape:connector-curvature="0" />
      <path
         d="m 886.4975,606.25785 c 16.62046,-15.74621 13.29637,24.66908 16.38303,0.52488 3.08665,-24.1442 4.51126,-49.33816 10.68457,-57.73614 2.37436,-5.77361 -16.85789,48.81328 -20.18198,-2.62436 -1.42461,-8.92286 4.27383,17.84571 -0.47487,36.74117 -4.7487,18.89546 -6.41075,23.09445 -6.41075,23.09445 z m 17.60944,-45.6077 c 0,4.12119 -1.51198,7.46208 -3.3771,7.46208 -1.86512,0 -3.3771,-3.34089 -3.3771,-7.46208 0,-4.1212 1.51198,-7.46209 3.3771,-7.46209 1.86512,0 3.3771,3.34089 3.3771,7.46209 z"
         style="opacity:0.1;fill:#000000;fill-opacity:1;fill-rule:evenodd;stroke:#000000;stroke-width:0.08670081pt;stroke-linecap:butt;stroke-linejoin:miter;stroke-opacity:1"
         id="path2506"
         inkscape:connector-curvature="0" />
      <path
         d="m 887.35994,609.45696 c 16.62045,-15.74622 13.29636,24.66908 16.38302,0.52488 3.08666,-24.1442 4.51126,-49.33816 10.68458,-57.73614 2.37435,-5.77361 -16.8579,48.81328 -20.18199,-2.62436 -1.42461,-8.92286 4.27383,17.84571 -0.47486,36.74117 -4.74871,18.89546 -6.41075,23.09445 -6.41075,23.09445 z m 17.60944,-45.60771 c 0,4.1212 -1.51199,7.46209 -3.37711,7.46209 -1.86512,0 -3.37709,-3.34089 -3.37709,-7.46209 0,-4.12119 1.51197,-7.46208 3.37709,-7.46208 1.86512,0 3.37711,3.34089 3.37711,7.46208 z"
         style="opacity:0.1;fill:#000000;fill-opacity:1;fill-rule:evenodd;stroke:#000000;stroke-width:0.08670081pt;stroke-linecap:butt;stroke-linejoin:miter;stroke-opacity:1"
         id="path2509"
         inkscape:connector-curvature="0" />
      <path
         d="m 886.07866,608.08212 c 16.62046,-15.74622 13.29636,24.66907 16.38302,0.52487 3.08666,-24.1442 4.51127,-49.33815 10.68458,-57.73613 2.37435,-5.77361 -16.85789,48.81328 -20.18198,-2.62436 -1.42462,-8.92287 4.27383,17.84571 -0.47487,36.74117 -4.7487,18.89546 -6.41075,23.09445 -6.41075,23.09445 z m 17.60944,-45.60771 c 0,4.1212 -1.51198,7.46209 -3.3771,7.46209 -1.86512,0 -3.3771,-3.34089 -3.3771,-7.46209 0,-4.12119 1.51198,-7.46208 3.3771,-7.46208 1.86512,0 3.3771,3.34089 3.3771,7.46208 z"
         style="opacity:0.5;fill:#000000;fill-opacity:1;fill-rule:evenodd;stroke:#000000;stroke-width:0.08670081pt;stroke-linecap:butt;stroke-linejoin:miter;stroke-opacity:1"
         id="path2512"
         inkscape:connector-curvature="0" />
      <path
         d="m 947.39881,592.45674 c 2.80914,-15.05689 6.69871,-9.41056 10.37219,-9.09687 3.67354,0.31368 4.53789,-3.76423 9.29187,8.78319 -0.86441,-6.90108 -1.51267,-17.2527 3.67349,-14.74321 5.18609,2.50948 9.5079,0 7.34702,-2.50949 -2.16093,-2.50949 -2.16093,-5.96003 -5.61833,-5.64634 -3.45739,0.31369 -4.97,4.07791 -8.64355,3.45054 -3.67348,-0.62737 -12.96529,2.50948 -15.55834,-1.56843 -2.59311,-4.07791 3.24131,-13.48848 0.43218,-9.41056 -2.8092,4.07791 -4.53789,11.29268 -3.02529,16.93901 -0.21609,5.33266 1.72876,13.80216 1.72876,13.80216 z"
         style="opacity:0.1;fill:#000000;fill-opacity:1;fill-rule:evenodd;stroke:#000000;stroke-width:0.06394203pt;stroke-linecap:butt;stroke-linejoin:miter;stroke-opacity:1"
         id="path2541"
         inkscape:connector-curvature="0" />
      <path
         d="m 946.11754,596.58127 c 2.80913,-15.05689 6.6987,-9.41056 10.37225,-9.09687 3.67348,0.31368 4.53783,-3.76423 9.29181,8.78319 -0.86441,-6.90108 -1.51268,-17.2527 3.67348,-14.74321 5.18609,2.50948 9.5079,0 7.34703,-2.50949 -2.16094,-2.50949 -2.16094,-5.96003 -5.61833,-5.64634 -3.4574,0.31369 -4.97001,4.07791 -8.64355,3.45054 -3.67349,-0.62737 -12.9653,2.50948 -15.55834,-1.56843 -2.59309,-4.07791 3.2413,-13.48848 0.43217,-9.41056 -2.8092,4.0779 -4.53789,11.29268 -3.02526,16.93901 -0.21609,5.33266 1.72874,13.80216 1.72874,13.80216 z"
         style="opacity:0.8;fill:#000000;fill-opacity:1;fill-rule:evenodd;stroke:#000000;stroke-width:0.06394203pt;stroke-linecap:butt;stroke-linejoin:miter;stroke-opacity:1"
         id="path2542"
         inkscape:connector-curvature="0" />
    </g>
  </g>
  <path
     d="m 542.71601,394.68735 c 2.37525,6.39761 1.27223,12.55824 -2.46365,13.76015 -3.7359,1.20191 -8.68997,-3.01005 -11.06522,-9.40766 -2.37526,-6.39762 -1.27224,-12.55825 2.46365,-13.76016 3.7359,-1.20191 8.68996,3.01004 11.06522,9.40767 z m -8.98621,82.14774 c 24.21596,-35.15439 40.85108,29.72713 33.11823,-9.74265 -7.73286,-39.46978 -19.39988,-79.49812 -11.87472,-96.51305 1.42828,-10.49284 -5.63332,86.63966 -41.93771,8.93157 -7.99623,-12.93353 18.84602,24.94901 20.22463,57.34185 1.37861,32.39285 0.46957,39.98228 0.46957,39.98228 z"
     style="fill:#c87137;fill-opacity:1;stroke:#784421;stroke-width:1.32093596;stroke-miterlimit:4;stroke-dasharray:none;stroke-opacity:1"
     id="path2325"
     inkscape:connector-curvature="0" />
  <path
     style="opacity:1;fill:#666666;fill-opacity:1;fill-rule:nonzero;stroke:#4d4d4d;stroke-width:3;stroke-linecap:round;stroke-linejoin:bevel;stroke-miterlimit:4;stroke-dasharray:none;stroke-dashoffset:0;stroke-opacity:1;paint-order:stroke markers fill"
     id="path862"
     d="m 39.284574,143.50941 c 8.952505,11.84962 19.952808,21.95363 30.557729,32.27992 27.138601,25.77007 55.953887,49.78047 86.327587,71.65237 9.09687,6.5506 18.3963,12.81523 27.59446,19.22284 45.53662,30.54584 93.37586,57.36945 141.1132,84.25517 49.6175,27.94462 30.3984,17.04359 79.77911,45.41157 58.35761,34.17618 115.17144,71.15952 168.69652,112.55212 8.79424,6.80086 17.3713,13.87803 26.05695,20.81704 44.02967,35.56447 83.35106,76.33446 122.80812,116.76627 18.47069,19.26161 37.42279,38.0507 56.15772,57.05198 7.24745,7.35049 14.38126,14.81267 21.64812,22.14397 18.46059,18.6243 28.15062,27.94064 46.92228,46.27628 24.72459,24.22808 50.69076,47.54092 80.24827,65.77771 10.66582,6.58073 13.85167,7.82852 24.41509,12.92875 0,0 -10.16745,6.67526 -10.16745,6.67526 v 0 C 931.28611,851.79902 928.31871,850.44901 918.04405,843.56077 889.36884,824.33663 864.16667,800.55529 839.58309,776.46333 797.30681,735.21027 754.85956,694.11601 713.88466,651.55831 674.61395,611.13933 635.64259,570.22282 592.12445,534.27196 568.96865,515.3579 562.63053,509.76382 538.25058,491.60552 493.69016,458.41671 447.11063,427.99799 399.20325,399.87441 385.93934,392.25292 372.72247,384.54899 359.41153,377.00994 298.15435,342.31509 235.65428,309.67102 176.58254,271.25034 167.21249,264.94129 157.7551,258.76005 148.47238,252.32319 117.42623,230.79502 87.709954,207.36497 59.634085,182.08337 48.58511,171.90976 37.373521,161.86912 27.294219,150.7084 c 0,0 11.990355,-7.19899 11.990355,-7.19899 z"
     inkscape:connector-curvature="0" />
  <path
     style="opacity:1;fill:#666666;fill-opacity:1;fill-rule:nonzero;stroke:#4d4d4d;stroke-width:3;stroke-linecap:round;stroke-linejoin:bevel;stroke-miterlimit:4;stroke-dasharray:none;stroke-dashoffset:0;stroke-opacity:1;paint-order:stroke markers fill"
     id="path862-9"
     d="m 266.68194,22.51023 c 8.95251,11.84961 19.95281,21.95363 30.55773,32.27992 27.1386,25.77006 55.95389,49.78047 86.32759,71.65236 9.09688,6.55061 18.3963,12.81524 27.59446,19.22285 45.53662,30.54584 93.37586,57.36945 141.1132,84.25517 49.6175,27.94462 30.3984,17.04359 79.77911,45.41157 58.35761,34.17618 115.17144,71.15952 168.69652,112.55212 8.79424,6.80086 17.3713,13.87803 26.05695,20.81704 44.02967,35.56447 83.35106,76.33446 122.80812,116.76627 18.47069,19.26161 37.42279,38.0507 56.15768,57.05198 7.2475,7.35049 14.3813,14.81267 21.6482,22.14397 18.4605,18.6243 28.1506,27.94064 46.9222,46.27628 24.7246,24.22808 50.6908,47.54092 80.2483,65.77771 10.6658,6.58073 13.8517,7.82852 24.4151,12.92875 0,0 -10.1675,6.67526 -10.1675,6.67526 v 0 c -10.1561,-5.52164 -13.1235,-6.87165 -23.3982,-13.75989 -28.6752,-19.22414 -53.8774,-43.00548 -78.4609,-67.09744 C 1024.7042,614.21109 982.25693,573.11683 941.28203,530.55913 902.01132,490.14015 863.03996,449.22364 819.52182,413.27278 796.36602,394.35872 790.0279,388.76464 765.64795,370.60634 721.08753,337.41753 674.508,306.99881 626.60062,278.87523 613.33671,271.25374 600.11984,263.54981 586.8089,256.01076 525.55172,221.31591 463.05165,188.67184 403.97991,150.25116 394.60986,143.94211 385.15247,137.76087 375.86976,131.32401 344.8236,109.79584 315.10732,86.36579 287.03145,61.08418 275.98248,50.91058 264.77089,40.86994 254.69159,29.70922 c 0,0 11.99035,-7.19899 11.99035,-7.19899 z"
     inkscape:connector-curvature="0" />
  <g
     sodipodi:type="inkscape:box3d"
     id="g917"
     style="opacity:1;fill:#4d4d4d;fill-opacity:1;fill-rule:nonzero;stroke:#333333;stroke-width:3;stroke-linecap:round;stroke-linejoin:bevel;stroke-miterlimit:4;stroke-dasharray:none;stroke-dashoffset:0;stroke-opacity:1;paint-order:stroke markers fill"
     inkscape:perspectiveID="#perspective915"
     inkscape:corner0="0.56473235 : -0.1729198 : 0 : 1"
     inkscape:corner7="0.4708484 : -0.34768747 : 0.25 : 1">
    <path
       sodipodi:type="inkscape:box3dside"
       id="path919"
       style="fill:#353564;fill-rule:evenodd;stroke:none;stroke-width:2.65131545;stroke-linejoin:round"
       inkscape:box3dsidetype="6"
       d="m 584.32522,421.55466 v 104.73187 l 75.73941,-35.17029 v -90.30387 z"
       points="584.32522,526.28653 660.06463,491.11624 660.06463,400.81237 584.32522,421.55466 " />
    <path
       sodipodi:type="inkscape:box3dside"
       id="path927"
       style="fill:#afafde;fill-rule:evenodd;stroke:none;stroke-width:2.65131545;stroke-linejoin:round"
       inkscape:box3dsidetype="13"
       d="m 584.32522,526.28653 16.47963,16.29566 77.4774,-39.45646 -18.21762,-12.00949 z"
       points="600.80485,542.58219 678.28225,503.12573 660.06463,491.11624 584.32522,526.28653 " />
    <path
       sodipodi:type="inkscape:box3dside"
       id="path929"
       style="fill:#e9e9ff;fill-rule:evenodd;stroke:none;stroke-width:2.65131545;stroke-linejoin:round"
       inkscape:box3dsidetype="11"
       d="m 660.06463,400.81237 18.21762,7.08281 v 95.23055 l -18.21762,-12.00949 z"
       points="678.28225,407.89518 678.28225,503.12573 660.06463,491.11624 660.06463,400.81237 " />
    <path
       sodipodi:type="inkscape:box3dside"
       id="path921"
       style="fill:#4d4d9f;fill-rule:evenodd;stroke:none;stroke-width:2.65131545;stroke-linejoin:round"
       inkscape:box3dsidetype="5"
       d="m 584.32522,421.55466 16.47963,9.61065 77.4774,-23.27013 -18.21762,-7.08281 z"
       points="600.80485,431.16531 678.28225,407.89518 660.06463,400.81237 584.32522,421.55466 " />
    <path
       sodipodi:type="inkscape:box3dside"
       id="path925"
       style="fill:#d7d7ff;fill-rule:evenodd;stroke:none;stroke-width:2.65131545;stroke-linejoin:round"
       inkscape:box3dsidetype="14"
       d="m 600.80485,431.16531 v 111.41688 l 77.4774,-39.45646 v -95.23055 z"
       points="600.80485,542.58219 678.28225,503.12573 678.28225,407.89518 600.80485,431.16531 " />
    <path
       sodipodi:type="inkscape:box3dside"
       id="path923"
       style="fill:#8686bf;fill-rule:evenodd;stroke:none;stroke-width:2.65131545;stroke-linejoin:round"
       inkscape:box3dsidetype="3"
       d="m 584.32522,421.55466 16.47963,9.61065 v 111.41688 l -16.47963,-16.29566 z"
       points="600.80485,431.16531 600.80485,542.58219 584.32522,526.28653 584.32522,421.55466 " />
  </g>
  <g
     id="g962"
     transform="translate(62.362625,164.18511)">
    <rect
       id="rect2389"
       style="fill:#aaaaff;fill-opacity:1;stroke:none;stroke-width:0.1723261;stroke-miterlimit:4;stroke-opacity:1"
       y="181.71455"
       x="450.67297"
       height="33.611294"
       width="1.0499498" />
    <path
       id="path957"
       d="m 440.9469,185.60942 c 16.33504,-12.61319 13.06804,19.76066 16.10168,0.42044 3.03366,-19.34022 4.4338,-39.52132 10.5011,-46.24836 2.33358,-4.62483 -16.5684,39.10089 -19.8354,-2.10219 -1.40015,-7.14747 4.20044,14.29495 -0.46672,29.43077 -4.66715,15.13582 -6.30066,18.49934 -6.30066,18.49934 z"
       style="fill:#aaaaff;fill-opacity:1;fill-rule:evenodd;stroke:#000000;stroke-width:0.07692828pt;stroke-linecap:butt;stroke-linejoin:miter;stroke-opacity:1"
       inkscape:connector-curvature="0" />
    <path
       id="path955"
       d="m 458.25393,149.07629 c 0,3.30121 -1.48602,5.97736 -3.31911,5.97736 -1.83308,0 -3.3191,-2.67615 -3.3191,-5.97736 0,-3.30119 1.48602,-5.97735 3.3191,-5.97735 1.83309,0 3.31911,2.67616 3.31911,5.97735 z"
       style="fill:#aaaaff;fill-opacity:1;fill-rule:evenodd;stroke:#000000;stroke-width:0.07692828pt;stroke-linecap:butt;stroke-linejoin:miter;stroke-opacity:1"
       inkscape:connector-curvature="0" />
  </g>
  <g
     id="g966"
     transform="translate(71.352809,155.02921)">
    <path
       id="path2387"
       d="m 489.94763,194.96945 c 2.26143,-12.91495 5.39266,-8.07184 8.34992,-7.80278 2.95726,0.26906 3.65309,-3.22875 7.48014,7.53372 -0.69583,-5.91935 -1.2177,-14.79838 2.95726,-12.64589 4.17496,2.15249 7.65409,0 5.91453,-2.15249 -1.73957,-2.1525 -1.73957,-5.11218 -4.52288,-4.84312 -2.7833,0.26907 -4.001,3.49781 -6.95826,2.95968 -2.95727,-0.53812 -10.4374,2.1525 -12.52488,-1.3453 -2.08749,-3.4978 2.60935,-11.56965 0.34791,-8.07185 -2.26144,3.4978 -3.65309,9.68622 -2.4354,14.52932 -0.17395,4.57405 1.39166,11.83871 1.39166,11.83871 z"
       style="fill:#aaaaff;fill-opacity:1;fill-rule:evenodd;stroke:#000000;stroke-width:0.07692828pt;stroke-linecap:butt;stroke-linejoin:miter;stroke-opacity:1"
       inkscape:connector-curvature="0" />
    <rect
       id="rect2407"
       style="fill:#aaaaff;fill-opacity:1;stroke:none;stroke-width:0.1723261;stroke-miterlimit:4;stroke-opacity:1"
       y="186.51617"
       x="496.87076"
       height="33.611294"
       width="1.0507981" />
  </g>
  <path
     d="m 312.99874,329.56663 c -9.60249,-24.47759 -21.88254,-29.45682 -14.28058,-43.75561 -0.80021,20.8423 13.88047,14.91568 21.88254,29.69917 2.00051,-10.42115 2.45694,-10.3692 4.45745,-23.94092 4.80126,15.51055 5.94523,19.33622 10.34637,23.45621 7.60198,-13.81408 14.43908,-13.53482 18.84022,-26.62186 4.00105,16.23762 -0.77707,23.29221 -8.0374,29.53009 8.80228,-12.60232 25.51604,-11.32324 25.11595,-14.95854 -0.40011,-3.63528 -10.99967,11.40036 -12.71273,17.38207 -11.60301,18.90348 -45.61182,9.20939 -45.61182,9.20939 z"
     style="fill:#ff9955;fill-opacity:1;fill-rule:evenodd;stroke:none;stroke-width:0.10461665pt;stroke-linecap:butt;stroke-linejoin:miter;stroke-opacity:1"
     id="path2384-8"
     inkscape:connector-curvature="0"
     sodipodi:nodetypes="cccccccscc" />
  <path
     d="m 744.48895,596.33615 c -9.48848,-11.18592 -24.03702,-26.61578 -10.35612,-4.32215 29.67107,48.35025 -7.32988,8.89312 -9.39004,-2.61122 -2.06016,-11.50435 -8.45295,22.89697 -18.54812,16.24804 -16.58299,-10.92195 -6.32506,-43.52621 -7.84073,-51.61561 -0.75784,-4.04469 -35.5709,113.59588 -3.69082,-16.07932 1.22141,-4.96823 4.68723,-8.84325 9.93853,-4.96866 11.64365,1.19106 26.07767,-1.47116 21.20044,7.78181 -7.36514,13.973 37.85687,56.44041 3.85547,27.46971 -6.12011,-5.21459 -8.71574,-27.83945 -10.89294,-0.69687 -1.33822,16.68328 -6.58539,8.13146 5.96156,6.6689 17.68193,-2.06114 27.98082,28.28784 30.72624,36.43702 2.74542,8.14919 -10.96347,-14.31165 -10.96347,-14.31165 z"
     style="fill:#deaa87;fill-opacity:0.97196201;fill-rule:evenodd;stroke:#d38d5f;stroke-width:2.65639925;stroke-linecap:butt;stroke-linejoin:miter;stroke-miterlimit:4;stroke-dasharray:none;stroke-opacity:1"
     id="path2687-2"
     inkscape:connector-curvature="0"
     sodipodi:nodetypes="cssssscsssssc" />
  <path
     d="m 724.99404,515.65017 c 0,9.15911 -5.19283,16.58405 -11.59851,16.58405 -6.40568,0 -11.59851,-7.42494 -11.59851,-16.58405 0,-9.15911 5.19283,-16.58404 11.59851,-16.58404 6.40568,0 11.59851,7.42493 11.59851,16.58404 z"
     style="fill:#f1d4a7;fill-opacity:1;stroke:#ffb380;stroke-width:0.61127025;stroke-miterlimit:4;stroke-opacity:1"
     id="path2700"
     inkscape:connector-curvature="0" />
  <path
     d="m 716.73131,511.43641 c 6.7e-4,1.25125 -0.24436,2.40823 -0.64263,3.03438 -0.39829,0.62615 -0.88918,0.62615 -1.28746,0 -0.39827,-0.62615 -0.6433,-1.78313 -0.64263,-3.03438 -6.7e-4,-1.25125 0.24436,-2.40823 0.64263,-3.03438 0.39828,-0.62615 0.88917,-0.62615 1.28746,0 0.39827,0.62615 0.6433,1.78313 0.64263,3.03438 z m 4.5022,0.8315 c 6.7e-4,1.25125 -0.24436,2.40823 -0.64263,3.03438 -0.39829,0.62615 -0.88918,0.62615 -1.28746,0 -0.39827,-0.62615 -0.6433,-1.78313 -0.64263,-3.03438 -6.7e-4,-1.25125 0.24436,-2.40823 0.64263,-3.03438 0.39828,-0.62615 0.88917,-0.62615 1.28746,0 0.39827,0.62615 0.6433,1.78313 0.64263,3.03438 z"
     style="opacity:0.5;fill:#000000;fill-opacity:1;stroke:#ffb380;stroke-width:0.93049508;stroke-miterlimit:4;stroke-opacity:1"
     id="path2706"
     inkscape:connector-curvature="0" />
  <rect
     width="18.534517"
     height="7.4673152"
     x="-758.69635"
     y="597.73718"
     transform="scale(-1,1)"
     style="fill:#b3b3b3;fill-opacity:1;stroke:#808080;stroke-width:1.13872194;stroke-miterlimit:4;stroke-opacity:1"
     id="rect2688-76" />
  <path
     style="opacity:1;fill:#999999;fill-opacity:0.97196224;fill-rule:nonzero;stroke:#666666;stroke-width:2;stroke-linecap:round;stroke-linejoin:bevel;stroke-miterlimit:4;stroke-dasharray:none;stroke-dashoffset:0;stroke-opacity:1;paint-order:stroke markers fill"
     id="path1053"
     d="m 708.04373,532.95619 c 0.39881,2.12021 1.02956,4.18248 1.68939,6.23299 0.97296,2.68675 1.83944,5.40777 2.68486,8.13659 1.28177,4.03572 2.21389,8.16779 3.17538,12.28769 0.93732,4.13435 1.99709,8.23978 3.33966,12.26185 0.81284,2.32436 1.86765,4.54676 2.97778,6.74043 1.61749,3.16081 3.22447,6.32857 4.64008,9.58563 1.13043,2.78674 2.05797,5.65218 2.90747,8.53556 0.36298,1.48224 0.81092,2.94149 1.19308,4.41844 0.20839,0.92231 0.40395,1.84716 0.51299,2.78697 0.0375,0.39196 0.0543,0.78532 0.071,1.17855 0,0 -3.28106,1.68565 -3.28106,1.68565 v 0 c -0.01,-0.38602 -0.0188,-0.77228 -0.0532,-1.15713 -0.0922,-0.92993 -0.2695,-1.84408 -0.46363,-2.75764 -0.34689,-1.48975 -0.79811,-2.9538 -1.10142,-4.45455 -0.77641,-2.89581 -1.68625,-5.76045 -2.78035,-8.55245 -1.39925,-3.25467 -3.0226,-6.40448 -4.7139,-9.51654 -1.1544,-2.19769 -2.20935,-4.44336 -2.96406,-6.81465 -1.25621,-4.07033 -2.24637,-8.21307 -3.21445,-12.35992 -0.99205,-4.09197 -1.98827,-8.18778 -3.29798,-12.19263 -0.87868,-2.71429 -1.75399,-5.42931 -2.72095,-8.1139 -0.67089,-2.04841 -1.29445,-4.10747 -1.86288,-6.18681 0,0 3.26223,-1.74413 3.26223,-1.74413 z"
     inkscape:connector-curvature="0" />
  <rect
     width="18.534517"
     height="7.4673152"
     x="-740.16187"
     y="600.78094"
     transform="scale(-1,1)"
     style="fill:#b3b3b3;fill-opacity:1;stroke:#808080;stroke-width:1.13872194;stroke-miterlimit:4;stroke-opacity:1"
     id="rect2688-7" />
  <rect
     width="21.910908"
     height="8.2114201"
     x="-722.43835"
     y="524.84998"
     transform="scale(-1,1)"
     style="fill:#b3b3b3;fill-opacity:1;stroke:#808080;stroke-width:1.29832697;stroke-miterlimit:4;stroke-opacity:1"
     id="rect2688" />
  <ellipse
     style="opacity:0;fill:#cccccc;fill-opacity:0.97196218;fill-rule:nonzero;stroke:#1a1a1a;stroke-width:2;stroke-linecap:round;stroke-linejoin:bevel;stroke-miterlimit:4;stroke-dasharray:none;stroke-dashoffset:0;stroke-opacity:1;paint-order:stroke markers fill"
     id="path1127"
     cx="753.16852"
     cy="538.95282"
     rx="167.62247"
     ry="109.86067" />
  <ellipse
     style="opacity:0;fill:#cccccc;fill-opacity:0.97196218;fill-rule:nonzero;stroke:#1a1a1a;stroke-width:2;stroke-linecap:round;stroke-linejoin:bevel;stroke-miterlimit:4;stroke-dasharray:none;stroke-dashoffset:0;stroke-opacity:1;paint-order:stroke markers fill"
     id="path1129"
     cx="907.76624"
     cy="459.67194"
     rx="57.195507"
     ry="69.087639" />
  <path
     style="fill:none;stroke:#666666;stroke-width:17;stroke-linecap:butt;stroke-linejoin:miter;stroke-miterlimit:4;stroke-dasharray:none;stroke-opacity:1"
     d="m 919.65842,497.04718 -14.72359,233.31237 -65.68989,37.37528"
     id="path1141"
     inkscape:connector-curvature="0"
     sodipodi:nodetypes="ccc" />
  <path
     style="opacity:0;fill:#333333;fill-opacity:1;fill-rule:nonzero;stroke:#666666;stroke-width:17;stroke-linecap:round;stroke-linejoin:bevel;stroke-miterlimit:4;stroke-dasharray:none;stroke-dashoffset:0;stroke-opacity:1;paint-order:stroke markers fill"
     id="path1147"
     d="m 1233.3136,191.26898 c 3.2543,13.32284 8.9529,25.90267 14.9686,38.16892 8.9567,18.26297 15.9781,30.96531 25.8065,49.3752 37.1339,67.7657 78.4585,133.18109 122.5781,196.60318 9.6092,13.81321 19.5165,27.41662 29.2748,41.12493 35.0382,47.41953 71.6113,93.84202 111.0721,137.68368 0,0 -12.7171,7.63806 -12.7171,7.63806 v 0 c -35.9844,-46.42489 -71.3491,-93.34539 -105.7429,-140.96119 -9.7921,-13.69621 -19.7559,-27.2713 -29.3763,-41.08863 -9.4973,-13.64045 -18.727,-27.46576 -27.9723,-41.27823 -33.7602,-50.43758 -66.3464,-101.64901 -97.2923,-153.86562 -5.3022,-9.07019 -10.6484,-18.11482 -15.9066,-27.21058 -10.8562,-18.77905 -22.1349,-37.60519 -29.3236,-58.17607 0,0 14.631,-8.01365 14.631,-8.01365 z"
     inkscape:connector-curvature="0" />
</svg>
